<svg xmlns="http://www.w3.org/2000/svg" width="113" height="90" viewBox="0 0 113 90">
  <g id="links_img4" transform="translate(-1175 -3454)">
    <rect id="사각형_170" data-name="사각형 170" width="113" height="90" transform="translate(1175 3454)" fill="none"/>
    <path id="패스_230" data-name="패스 230" d="M1271.834,3497.422a39.294,39.294,0,1,1-39.3-39.294A39.3,39.3,0,0,1,1271.834,3497.422Z" fill="#b0c1ff" style="mix-blend-mode: multiply;isolation: isolate"/>
    <g id="그룹_123" data-name="그룹 123">
      <g id="그룹_116" data-name="그룹 116">
        <path id="패스_231" data-name="패스 231" d="M1259.531,3463.658l-11.253,11.252,9.552,9.552,11.253-11.252" fill="#cfa1f5" stroke="#4a65f6" stroke-linecap="round" stroke-linejoin="round" stroke-width="2.31"/>
        <g id="그룹_115" data-name="그룹 115">
          <g id="그룹_114" data-name="그룹 114">
            <path id="패스_232" data-name="패스 232" d="M1235.619,3485.161s-5.262,2.515-7.276,2.148-2.883-2.151-.274-3.57,6.544-3.707,8.283-4.074a23.962,23.962,0,0,1,6.579-.652c2.793.137,4.754-3.118,4.754-3.118l9.218,9.218a15.372,15.372,0,0,0-2.981,3.609,42.356,42.356,0,0,1-7.594,9.614c-3.766,3.355-8.486,7.138-8.486,7.138s-1.512.815-2.313.188a1.743,1.743,0,0,1-.824-2.105l-2.517,2.517a1.968,1.968,0,0,1-2.479.581,1.889,1.889,0,0,1-.984-2.255l-1.869,1.87a2.019,2.019,0,0,1-2.64-.1c-1.612-1.385-1.04-2.505.771-4.317a2.132,2.132,0,0,1-2.525-.558s-1.426-1.08.443-3.18S1235.619,3485.161,1235.619,3485.161Z" fill="#fff" stroke="#4a65f6" stroke-linecap="round" stroke-linejoin="round" stroke-width="2.31"/>
            <line id="선_14" data-name="선 14" y1="9.578" x2="9.578" transform="translate(1228.725 3494.823)" fill="#cfa1f5" stroke="#4a65f6" stroke-linecap="round" stroke-linejoin="round" stroke-width="2.31"/>
            <line id="선_15" data-name="선 15" y1="10.194" x2="10.195" transform="translate(1224.987 3491.624)" fill="#cfa1f5" stroke="#4a65f6" stroke-linecap="round" stroke-linejoin="round" stroke-width="2.31"/>
            <line id="선_16" data-name="선 16" y1="6.307" x2="6.489" transform="translate(1234.705 3497.25)" fill="#cfa1f5" stroke="#4a65f6" stroke-linecap="round" stroke-linejoin="round" stroke-width="2.31"/>
          </g>
          <path id="사각형_37" data-name="사각형 37" d="M.818,0h3.27a.818.818,0,0,1,.818.818V15.969a.817.817,0,0,1-.817.817H.818A.818.818,0,0,1,0,15.968V.818A.818.818,0,0,1,.818,0Z" transform="matrix(0.707, -0.707, 0.707, 0.707, 1245.443, 3475.727)" fill="#b670f0" stroke="#4a65f6" stroke-linecap="round" stroke-linejoin="round" stroke-width="2.31"/>
        </g>
      </g>
      <g id="그룹_119" data-name="그룹 119">
        <path id="패스_233" data-name="패스 233" d="M1190.583,3491.948H1206.5v13.509h-15.914" fill="#cfa1f5" stroke="#4a65f6" stroke-linecap="round" stroke-linejoin="round" stroke-width="2.31"/>
        <g id="그룹_118" data-name="그룹 118">
          <g id="그룹_117" data-name="그룹 117">
            <path id="패스_234" data-name="패스 234" d="M1222.7,3490.244s5.5-1.942,6.663-3.625.518-3.56-2.329-2.718-7.25,2.006-8.739,2.977a23.873,23.873,0,0,0-5.113,4.19c-1.877,2.072-5.567,1.156-5.567,1.156v13.036a15.4,15.4,0,0,1,4.661.445,42.345,42.345,0,0,0,12.168,1.428c5.033-.291,11.047-.952,11.047-.952s1.645-.494,1.769-1.5a1.741,1.741,0,0,0-.906-2.071h3.561a1.966,1.966,0,0,0,2.162-1.343,1.888,1.888,0,0,0-.9-2.289h2.644a2.02,2.02,0,0,0,1.8-1.935c.16-2.12-1.036-2.508-3.6-2.508a2.13,2.13,0,0,0,1.389-2.18s.246-1.771-2.561-1.935S1222.7,3490.244,1222.7,3490.244Z" fill="#fff" stroke="#4a65f6" stroke-linecap="round" stroke-linejoin="round" stroke-width="2.31"/>
            <line id="선_17" data-name="선 17" x1="13.544" transform="translate(1227.631 3498.975)" fill="#cfa1f5" stroke="#4a65f6" stroke-linecap="round" stroke-linejoin="round" stroke-width="2.31"/>
            <line id="선_18" data-name="선 18" x1="14.416" transform="translate(1227.576 3494.505)" fill="#cfa1f5" stroke="#4a65f6" stroke-linecap="round" stroke-linejoin="round" stroke-width="2.31"/>
            <line id="선_19" data-name="선 19" x1="9.047" y2="0.128" transform="translate(1227.303 3502.607)" fill="#cfa1f5" stroke="#4a65f6" stroke-linecap="round" stroke-linejoin="round" stroke-width="2.31"/>
          </g>
          <path id="사각형_38" data-name="사각형 38" d="M.817,0H4.088a.818.818,0,0,1,.818.818V15.968a.818.818,0,0,1-.818.818H.818A.818.818,0,0,1,0,15.968V.817A.817.817,0,0,1,.817,0Z" transform="translate(1204.173 3490.52)" fill="#b670f0" stroke="#4a65f6" stroke-linecap="round" stroke-linejoin="round" stroke-width="2.31"/>
        </g>
      </g>
      <g id="그룹_122" data-name="그룹 122">
        <path id="패스_235" data-name="패스 235" d="M1255.191,3532.64l-6.453-14.547-12.348,5.477,6.452,14.547" fill="#cfa1f5" stroke="#4a65f6" stroke-linecap="round" stroke-linejoin="round" stroke-width="2.31"/>
        <g id="그룹_121" data-name="그룹 121">
          <g id="그룹_120" data-name="그룹 120">
            <path id="패스_236" data-name="패스 236" d="M1243.728,3502.594s-.455-5.814.611-7.561,3.045-1.917,3.43,1.027,1.1,7.441.821,9.195a23.881,23.881,0,0,1-1.756,6.373c-1.133,2.556,1.2,5.558,1.2,5.558l-11.916,5.285a15.383,15.383,0,0,0-2.3-4.08,42.324,42.324,0,0,1-6.239-10.544c-1.776-4.719-3.609-10.484-3.609-10.484s-.216-1.7.657-2.227a1.743,1.743,0,0,1,2.26-.011l-1.443-3.254a1.967,1.967,0,0,1,.35-2.522,1.887,1.887,0,0,1,2.457-.106l-1.071-2.417a2.017,2.017,0,0,1,1.038-2.428c1.873-1.007,2.712-.071,3.752,2.271a2.132,2.132,0,0,1,1.428-2.155s1.521-.942,2.808,1.558S1243.728,3502.594,1243.728,3502.594Z" fill="#fff" stroke="#4a65f6" stroke-linecap="round" stroke-linejoin="round" stroke-width="2.31"/>
            <line id="선_20" data-name="선 20" x2="5.492" y2="12.381" transform="translate(1228.254 3489.242)" fill="#cfa1f5" stroke="#4a65f6" stroke-linecap="round" stroke-linejoin="round" stroke-width="2.31"/>
            <line id="선_21" data-name="선 21" x2="5.845" y2="13.179" transform="translate(1232.009 3486.683)" fill="#cfa1f5" stroke="#4a65f6" stroke-linecap="round" stroke-linejoin="round" stroke-width="2.31"/>
            <line id="선_22" data-name="선 22" x2="3.551" y2="8.322" transform="translate(1226.89 3495.125)" fill="#cfa1f5" stroke="#4a65f6" stroke-linecap="round" stroke-linejoin="round" stroke-width="2.31"/>
          </g>
          <path id="사각형_39" data-name="사각형 39" d="M.817,0H15.969a.817.817,0,0,1,.817.817v3.27a.818.818,0,0,1-.818.818H.818A.818.818,0,0,1,0,4.087V.817A.817.817,0,0,1,.817,0Z" transform="translate(1233.652 3521.96) rotate(-23.919)" fill="#b670f0" stroke="#4a65f6" stroke-linecap="round" stroke-linejoin="round" stroke-width="2.31"/>
        </g>
      </g>
    </g>
    <path id="패스_237" data-name="패스 237" d="M1223.949,3464.863l1.909,3.869,4.269.62-3.089,3.012.729,4.253-3.819-2.008-3.819,2.008.729-4.253-3.089-3.012,4.269-.62Z" fill="#fff362" stroke="#4a65f6" stroke-linecap="round" stroke-linejoin="round" stroke-width="2.31"/>
    <path id="패스_238" data-name="패스 238" d="M1218.5,3514.479l1.909,3.869,4.27.62-3.089,3.011.729,4.253-3.819-2.008-3.819,2.008.729-4.253-3.089-3.011,4.269-.62Z" fill="#fff362" stroke="#4a65f6" stroke-linecap="round" stroke-linejoin="round" stroke-width="2.31"/>
  </g>
</svg>
