<svg xmlns="http://www.w3.org/2000/svg" width="113" height="90" viewBox="0 0 113 90">
  <g id="links_img1" transform="translate(-371 -3453)">
    <rect id="사각형_173" data-name="사각형 173" width="113" height="90" transform="translate(371 3453)" fill="none"/>
    <circle id="타원_12" data-name="타원 12" cx="30.582" cy="30.582" r="30.582" transform="translate(388.665 3479.403) rotate(-22.5)" fill="#d4deff" style="mix-blend-mode: multiply;isolation: isolate"/>
    <path id="패스_186" data-name="패스 186" d="M423.678,3533.9a9.225,9.225,0,0,0,12.9-3.121H420.665A9.252,9.252,0,0,0,423.678,3533.9Z" fill="#fff"/>
    <path id="패스_187" data-name="패스 187" d="M429.836,3505.411a3.438,3.438,0,0,1-1.35-1.9,3.438,3.438,0,0,1-1.35,1.9,2.123,2.123,0,0,1-1.851,0,5.216,5.216,0,0,1-.938-.475l2.237,11.04h3.8l2.237-11.043C432.015,3505.317,430.776,3505.95,429.836,3505.411Z" fill="#fff362"/>
    <path id="패스_188" data-name="패스 188" d="M417.14,3526.536a2.082,2.082,0,0,0,2.08,2.079h18.8a2.079,2.079,0,0,0,0-4.159h-18.8A2.082,2.082,0,0,0,417.14,3526.536Z" fill="#fff"/>
    <path id="패스_189" data-name="패스 189" d="M417.14,3520.214a2.082,2.082,0,0,0,2.08,2.08h18.8a2.079,2.079,0,0,0,0-4.159h-18.8a2.069,2.069,0,0,0-1.23.406.676.676,0,0,1-.06.045A2.077,2.077,0,0,0,417.14,3520.214Z" fill="#fff"/>
    <path id="패스_190" data-name="패스 190" d="M424.378,3515.972l-2.239-11.047a1.986,1.986,0,0,1,3.174-1.955,3,3,0,0,0,.841.452,2.887,2.887,0,0,0,.321-.719,1.985,1.985,0,0,1,1.649-1.932,1.948,1.948,0,0,1,.412-.026,1.978,1.978,0,0,1,1.961,1.959,2.835,2.835,0,0,0,.322.717,3.246,3.246,0,0,0,.84-.45,1.985,1.985,0,0,1,3.174,1.954l-2.239,11.047h5.431a4.24,4.24,0,0,1,.651.056,13.521,13.521,0,0,1,1.221-2.069c.014-.019.028-.038.043-.056.347-.433,1.364-1.5,3.109-3.27l.018-.018c.261-.265.468-.475.612-.624a19.486,19.486,0,0,0,5.564-13.6,19.254,19.254,0,0,0-1.65-7.827,19.839,19.839,0,0,0-4.458-6.34,20.589,20.589,0,0,0-6.547-4.231,21.332,21.332,0,0,0-15.931,0,20.61,20.61,0,0,0-6.548,4.231,19.854,19.854,0,0,0-4.458,6.34,19.273,19.273,0,0,0-1.649,7.827,20.348,20.348,0,0,0,.654,4.539,17.822,17.822,0,0,0,2.358,5.835c.694.931,1.514,1.883,2.382,2.892,1.726,2,3.8,4.414,4.63,6.492a4.237,4.237,0,0,1,1.194-.174Zm-6.824-24.488a1.081,1.081,0,0,1-.395-1.477,13.233,13.233,0,0,1,24.7,6.61c0,.044,0,.087,0,.13v.021a1.082,1.082,0,0,1-1.08,1.042h-.04a1.082,1.082,0,0,1-1.041-1.12v-.021c0-.018,0-.034,0-.051a11.071,11.071,0,0,0-20.663-5.528A1.081,1.081,0,0,1,417.554,3491.484Z" fill="#fff362"/>
    <g id="그룹_82" data-name="그룹 82">
      <path id="패스_191" data-name="패스 191" d="M428.622,3483.383a13.279,13.279,0,0,0-11.463,6.624,1.081,1.081,0,0,0,1.872,1.082,11.071,11.071,0,0,1,20.663,5.528c0,.017,0,.033,0,.051v.021a1.082,1.082,0,0,0,1.041,1.12h.04a1.082,1.082,0,0,0,1.08-1.042v-.021c0-.043,0-.086,0-.13A13.249,13.249,0,0,0,428.622,3483.383Z" fill="#4a65f6"/>
      <path id="패스_192" data-name="패스 192" d="M428.015,3472a1.081,1.081,0,0,0,1.082-1.081v-11.086a1.081,1.081,0,0,0-2.163,0v11.086A1.081,1.081,0,0,0,428.015,3472Z" fill="#4a65f6"/>
      <path id="패스_193" data-name="패스 193" d="M414.409,3475.176a1.082,1.082,0,1,0,1.873-1.082l-5.543-9.6a1.081,1.081,0,1,0-1.873,1.081Z" fill="#4a65f6"/>
      <path id="패스_194" data-name="패스 194" d="M396.092,3479.585l9.6,5.543a1.082,1.082,0,0,0,1.082-1.873l-9.6-5.543a1.082,1.082,0,0,0-1.082,1.873Z" fill="#4a65f6"/>
      <path id="패스_195" data-name="패스 195" d="M404.2,3497.024a1.081,1.081,0,0,0-1.081-1.082H392.035a1.082,1.082,0,1,0,0,2.163h11.086A1.081,1.081,0,0,0,404.2,3497.024Z" fill="#4a65f6"/>
      <path id="패스_196" data-name="패스 196" d="M406.3,3508.756l-9.562,5.521a1.082,1.082,0,0,0,.051,2.162,1.993,1.993,0,0,0,.992-.267l9.6-5.543a1.081,1.081,0,1,0-1.081-1.873Z" fill="#4a65f6"/>
      <path id="패스_197" data-name="패스 197" d="M440.534,3474.667a1.068,1.068,0,0,0,.54.146,1.081,1.081,0,0,0,.937-.541l5.543-9.6a1.081,1.081,0,0,0-1.873-1.082l-5.543,9.6A1.081,1.081,0,0,0,440.534,3474.667Z" fill="#4a65f6"/>
      <path id="패스_198" data-name="패스 198" d="M450.849,3483.707a1.08,1.08,0,0,0,.54-.145l9.6-5.543a1.082,1.082,0,1,0-1.082-1.873l-9.6,5.543a1.081,1.081,0,0,0,.541,2.018Z" fill="#4a65f6"/>
      <path id="패스_199" data-name="패스 199" d="M465.952,3494.134H454.865a1.082,1.082,0,0,0,0,2.163h11.087a1.082,1.082,0,0,0,0-2.163Z" fill="#4a65f6"/>
      <path id="패스_200" data-name="패스 200" d="M444.631,3480.659a22.736,22.736,0,0,0-7.231-4.673,23.485,23.485,0,0,0-17.556,0,22.758,22.758,0,0,0-7.231,4.673,22.007,22.007,0,0,0-4.94,7.029,21.405,21.405,0,0,0-1.834,8.7,22.377,22.377,0,0,0,.712,5.035,19.98,19.98,0,0,0,2.729,6.631c.739.992,1.583,1.973,2.477,3.011,1.481,1.72,3.888,4.517,4.39,6.233a10.4,10.4,0,0,1-1.169,9.238,4.247,4.247,0,0,0,3.257,4.122,1.993,1.993,0,0,0,.16.463,11.389,11.389,0,0,0,20.455,0,1.975,1.975,0,0,0,.16-.463,31.184,31.184,0,0,1,3.257-10.444,4.232,4.232,0,0,0-1.611-3.321,11.352,11.352,0,0,1,.991-1.662c.227-.277.928-1.039,2.941-3.079l.018-.018c.268-.271.48-.487.627-.639a21.637,21.637,0,0,0,6.172-15.107,21.421,21.421,0,0,0-1.833-8.7A22.01,22.01,0,0,0,444.631,3480.659Zm-11.064,53.24a9.225,9.225,0,0,1-12.9-3.121H436.58A9.261,9.261,0,0,1,433.567,3533.9Zm6.537-7.363a2.082,2.082,0,0,1-2.079,2.079h-18.8a2.079,2.079,0,1,1,0-4.159h18.8A2.082,2.082,0,0,1,440.1,3526.536Zm-20.884-4.242a2.078,2.078,0,0,1-1.29-3.708l.06-.045a2.069,2.069,0,0,1,1.23-.406h18.8a2.079,2.079,0,0,1,0,4.159Zm7.364-6.322-2.237-11.04a5.216,5.216,0,0,0,.938.475,2.123,2.123,0,0,0,1.851,0,3.438,3.438,0,0,0,1.35-1.9,3.438,3.438,0,0,0,1.35,1.9c.94.539,2.179-.094,2.789-.482l-2.237,11.043Zm17.095-5.981c-.144.149-.351.359-.612.624l-.018.018c-1.745,1.768-2.762,2.837-3.109,3.27-.015.018-.029.037-.043.056a13.521,13.521,0,0,0-1.221,2.069,4.24,4.24,0,0,0-.651-.056h-5.431l2.239-11.047a1.985,1.985,0,0,0-3.174-1.954,3.246,3.246,0,0,1-.84.45,2.835,2.835,0,0,1-.322-.717,1.978,1.978,0,0,0-1.961-1.959,1.948,1.948,0,0,0-.412.026,1.985,1.985,0,0,0-1.649,1.932,2.887,2.887,0,0,1-.321.719,3,3,0,0,1-.841-.452,1.986,1.986,0,0,0-3.174,1.955l2.239,11.047H419.22a4.237,4.237,0,0,0-1.194.174c-.832-2.078-2.9-4.487-4.63-6.492-.868-1.009-1.688-1.961-2.382-2.892a17.822,17.822,0,0,1-2.358-5.835,20.348,20.348,0,0,1-.654-4.539,19.273,19.273,0,0,1,1.649-7.827,19.854,19.854,0,0,1,4.458-6.34,20.61,20.61,0,0,1,6.548-4.231,21.332,21.332,0,0,1,15.931,0,20.589,20.589,0,0,1,6.547,4.231,19.839,19.839,0,0,1,4.458,6.34,19.254,19.254,0,0,1,1.65,7.827A19.486,19.486,0,0,1,443.679,3509.991Z" fill="#4a65f6"/>
    </g>
  </g>
</svg>
