<svg xmlns="http://www.w3.org/2000/svg" xmlns:xlink="http://www.w3.org/1999/xlink" width="113" height="90" viewBox="0 0 113 90">
  <defs>
    <clipPath id="clip-path">
      <rect id="사각형_171" data-name="사각형 171" width="113" height="90" transform="translate(906 3453)" fill="#fff"/>
    </clipPath>
  </defs>
  <g id="links_img3" transform="translate(-906 -3453)">
    <g id="마스크_그룹_1" data-name="마스크 그룹 1" clip-path="url(#clip-path)">
      <circle id="타원_14" data-name="타원 14" cx="40.228" cy="40.228" r="40.228" transform="translate(904.894 3497.947) rotate(-45)" fill="none" stroke="#4a65f6" stroke-linejoin="round" stroke-width="2.42" stroke-dasharray="4.84 4.84 4.84 4.84 4.84 4.84"/>
      <g id="그룹_126" data-name="그룹 126">
        <path id="패스_239" data-name="패스 239" d="M926.222,3484.221a6.017,6.017,0,1,0-6.016-6.017A6.023,6.023,0,0,0,926.222,3484.221Z" fill="#fff" stroke="#4a65f6" stroke-linecap="round" stroke-linejoin="round" stroke-width="2.31"/>
        <path id="패스_240" data-name="패스 240" d="M926.222,3481.185a2.98,2.98,0,1,0-2.98-2.981A2.984,2.984,0,0,0,926.222,3481.185Z" fill="#5ddae2"/>
      </g>
      <g id="그룹_127" data-name="그룹 127">
        <path id="패스_241" data-name="패스 241" d="M1001.463,3497.053a6.017,6.017,0,1,0-6.016-6.017A6.024,6.024,0,0,0,1001.463,3497.053Z" fill="#fff" stroke="#4a65f6" stroke-linecap="round" stroke-linejoin="round" stroke-width="2.31"/>
        <path id="패스_242" data-name="패스 242" d="M1001.463,3494.016a2.981,2.981,0,1,0-2.981-2.98A2.984,2.984,0,0,0,1001.463,3494.016Z" fill="#ff8b94"/>
      </g>
      <g id="그룹_128" data-name="그룹 128">
        <path id="패스_243" data-name="패스 243" d="M972.791,3463.9a4.469,4.469,0,1,0-4.468-4.468A4.473,4.473,0,0,0,972.791,3463.9Z" fill="#fff" stroke="#4a65f6" stroke-linecap="round" stroke-linejoin="round" stroke-width="2"/>
        <path id="패스_244" data-name="패스 244" d="M972.791,3461.643a2.214,2.214,0,1,0-2.214-2.213A2.216,2.216,0,0,0,972.791,3461.643Z" fill="#ffd973"/>
      </g>
      <g id="그룹_129" data-name="그룹 129">
        <path id="패스_245" data-name="패스 245" d="M963.6,3541.575l-23.43-8.843-21.2,7.768,13.39-23.559,13.308-3.717,17.92,4.846,16.47-5.341,16.484,2.945,13.239,22.556-21.332-5.262Z" fill="#fff" stroke="#4a65f6" stroke-linecap="round" stroke-linejoin="round" stroke-width="2.31"/>
        <path id="패스_246" data-name="패스 246" d="M963.592,3542.262h0Z" fill="none"/>
        <line id="선_23" data-name="선 23" y1="19.507" x2="5.497" transform="translate(940.174 3513.225)" fill="none" stroke="#4a65f6" stroke-linecap="round" stroke-linejoin="round" stroke-width="2.31"/>
        <line id="선_24" data-name="선 24" x1="8.392" y1="20.239" transform="translate(980.062 3512.73)" fill="none" stroke="#4a65f6" stroke-linecap="round" stroke-linejoin="round" stroke-width="2.31"/>
        <line id="선_25" data-name="선 25" x1="0.012" y1="22.864" transform="translate(963.592 3518.712)" fill="none" stroke="#4a65f6" stroke-linecap="round" stroke-linejoin="round" stroke-width="2.31"/>
      </g>
      <g id="그룹_130" data-name="그룹 130">
        <path id="패스_247" data-name="패스 247" d="M948.554,3493.611a14.341,14.341,0,0,0,1.538,6.472c.094.2.8,1.413,1.105,1.844l11.449,18.405a1.244,1.244,0,0,0,.931.71c.321,0,.658-.272.925-.746l10.64-18.7c.363-.554,1.073-1.918,1.145-2.085a14.5,14.5,0,1,0-27.733-5.9Z" fill="#ff8b94" stroke="#4a65f6" stroke-linecap="round" stroke-linejoin="round" stroke-width="2.42"/>
        <path id="패스_248" data-name="패스 248" d="M963.065,3501.788a8.205,8.205,0,1,0-8.219-8.191A8.206,8.206,0,0,0,963.065,3501.788Z" fill="#fff" stroke="#4a65f6" stroke-linecap="round" stroke-linejoin="round" stroke-width="2.31"/>
      </g>
      <g id="그룹_131" data-name="그룹 131">
        <path id="패스_249" data-name="패스 249" d="M981.263,3506.115a6.533,6.533,0,0,0,.7,2.947c.008.016.016.033.023.05.029.053.346.6.48.787l5.5,8.848a.544.544,0,0,0,.141.164.515.515,0,0,0,.134-.169l5.106-8.973c.17-.26.492-.877.534-.971a6.6,6.6,0,1,0-12.623-2.683Z" fill="#5ddae2" stroke="#4a65f6" stroke-linecap="round" stroke-linejoin="round" stroke-width="2.42"/>
        <path id="패스_250" data-name="패스 250" d="M987.868,3509.354a3.119,3.119,0,1,0-3.126-3.113A3.117,3.117,0,0,0,987.868,3509.354Z" fill="#fff" stroke="#4a65f6" stroke-linecap="round" stroke-linejoin="round" stroke-width="1.5"/>
      </g>
      <g id="그룹_132" data-name="그룹 132">
        <path id="패스_251" data-name="패스 251" d="M928.224,3505.113a8.844,8.844,0,0,0,.95,3.995c.066.134.494.872.682,1.14l7.272,11.689c.152.245.3.332.377.332s.235-.108.369-.347l6.752-11.867c.219-.336.657-1.166.715-1.3a8.95,8.95,0,1,0-17.117-3.645Z" fill="#ffd973" stroke="#4a65f6" stroke-linecap="round" stroke-linejoin="round" stroke-width="2.42"/>
        <path id="패스_252" data-name="패스 252" d="M937.183,3509.81a4.537,4.537,0,1,0-4.546-4.529A4.537,4.537,0,0,0,937.183,3509.81Z" fill="#fff" stroke="#4a65f6" stroke-linecap="round" stroke-linejoin="round" stroke-width="2"/>
      </g>
    </g>
  </g>
</svg>
