<svg xmlns="http://www.w3.org/2000/svg" width="113" height="90" viewBox="0 0 113 90">
  <g id="links_img5" transform="translate(-1440 -3454)">
    <rect id="사각형_169" data-name="사각형 169" width="113" height="90" transform="translate(1440 3454)" fill="none"/>
    <g id="그룹_139" data-name="그룹 139">
      <g id="그룹_601" data-name="그룹 601">
        <g id="그룹_135" data-name="그룹 135">
          <path id="패스_253" data-name="패스 253" d="M1526.181,3499.132a9.12,9.12,0,0,1,6.761,2.028s5.41,3.9,6.167,13.863l1.84,16.253h-29.538s1.586-10.486,2.235-16.072a25.051,25.051,0,0,1,4.472-10.946S1522.006,3499.085,1526.181,3499.132Z" fill="#5ddae2" stroke="#4a65f6" stroke-linecap="round" stroke-linejoin="round" stroke-width="2.42"/>
          <path id="패스_254" data-name="패스 254" d="M1513.055,3472.764v14.322s0,9.376,5.642,9.376h3.4v6.107l11.56-1.16v-28.118" fill="#fff" stroke="#4a65f6" stroke-linecap="round" stroke-linejoin="round" stroke-width="2.31"/>
          <path id="패스_255" data-name="패스 255" d="M1513.689,3476.207a20.663,20.663,0,0,0,7.923,3.106,35.639,35.639,0,0,0,6.418.828l.243,5.083,1.6-2.089s1.984-1.013,3.054.638a4.238,4.238,0,0,1-1.656,4.977l2.38,4.245s4.037-2.776,5.279-5.858c0,0,2.8-4.634,1.45-12.088,0,0-2.278-7.971-10.145-9.627a26.848,26.848,0,0,0-12.94.518s-4.244.657-5.142,3.159C1510.638,3471.17,1511.568,3476.243,1513.689,3476.207Z" fill="#8051ca" stroke="#4a65f6" stroke-linecap="round" stroke-linejoin="round" stroke-width="1.416"/>
          <path id="패스_256" data-name="패스 256" d="M1541.314,3473.787s3.356-1.021,6.418,3.034c0,0,2.382,2.458,1.832,7.54,0,0-1.749,9.118.091,11.169a7.057,7.057,0,0,1-7.521-5.184s-1.221-4.006.193-7.113c0,0,.8-3.571-1.09-4.826" fill="#8051ca" stroke="#4a65f6" stroke-linecap="round" stroke-linejoin="round" stroke-width="1.416"/>
          <path id="패스_257" data-name="패스 257" d="M1533.655,3499l-12.411,3.83,2.844,5.294,12.607-3.69Z" fill="#fff" stroke="#4a65f6" stroke-linecap="round" stroke-linejoin="round" stroke-width="2.31"/>
          <path id="패스_258" data-name="패스 258" d="M1518.787,3483.971a1,1,0,1,1-1.005-1A1,1,0,0,1,1518.787,3483.971Z" fill="#4a65f6" stroke="#4a65f6" stroke-miterlimit="10" stroke-width="0.75"/>
          <path id="패스_259" data-name="패스 259" d="M1513.8,3491.912s2.979.664,4.612-1.226" fill="none" stroke="#4a65f6" stroke-linecap="round" stroke-linejoin="round" stroke-width="2"/>
        </g>
        <g id="그룹_136" data-name="그룹 136">
          <path id="패스_260" data-name="패스 260" d="M1466.449,3499.132s-4.581-.54-7.845,2.028c0,0-6.274,3.9-7.154,13.863l-2.134,16.253h34.266s-1.84-10.486-2.591-16.072a23.047,23.047,0,0,0-5.189-10.946S1471.292,3499.085,1466.449,3499.132Z" fill="#ffd973" stroke="#4a65f6" stroke-linecap="round" stroke-linejoin="round" stroke-width="2.42"/>
          <path id="패스_261" data-name="패스 261" d="M1480.668,3472.764v16.142s-.415,7.556-5.643,7.556h-3.4l-.006,6.369-11.553-1.422v-28.118" fill="#fff" stroke="#4a65f6" stroke-linecap="round" stroke-linejoin="round" stroke-width="2.31"/>
          <path id="패스_262" data-name="패스 262" d="M1479.166,3474.74a56.842,56.842,0,0,1-8.8,1.241s-3.053,4.869-4.916,6.162v3.081l-1.745-1.664s-1.846-1.438-2.914.213a4.237,4.237,0,0,0,1.656,4.977l-2.38,4.245s-4.038-2.776-5.281-5.858c0,0-2.8-4.634-1.448-12.088,0,0,2.277-7.971,10.145-9.627a26.843,26.843,0,0,1,12.939.518s3.968,2.485,6.038-.483C1482.461,3465.457,1485.791,3474.428,1479.166,3474.74Z" fill="#8051ca" stroke="#4a65f6" stroke-linecap="round" stroke-linejoin="round" stroke-width="1.416"/>
          <path id="패스_263" data-name="패스 263" d="M1459.892,3499l13.17,3.865-3.018,5.341-13.377-3.722Z" fill="#fff" stroke="#4a65f6" stroke-linecap="round" stroke-linejoin="round" stroke-width="2.31"/>
          <path id="패스_264" data-name="패스 264" d="M1476.766,3483.052a1,1,0,1,1-1.005-1A1,1,0,0,1,1476.766,3483.052Z" fill="#4a65f6" stroke="#4a65f6" stroke-miterlimit="10" stroke-width="0.75"/>
          <path id="패스_265" data-name="패스 265" d="M1480.556,3489.87l-5.8.066,4.488,3.9" fill="#4a65f6" stroke="#4a65f6" stroke-linecap="round" stroke-linejoin="round" stroke-width="2"/>
        </g>
        <line id="선_26" data-name="선 26" x2="104.124" transform="translate(1443.025 3531.276)" fill="none" stroke="#4a65f6" stroke-linecap="round" stroke-linejoin="round" stroke-width="2.31"/>
        <g id="그룹_137" data-name="그룹 137">
          <path id="패스_266" data-name="패스 266" d="M1467.21,3515.373l1.044,11.489a3.638,3.638,0,0,0,3.538,3.263l11.345.131v7.7h-16.881a7.965,7.965,0,0,1-7.663-6.657l-1.828-14.947" fill="#ffd973" stroke="#4a65f6" stroke-linecap="round" stroke-linejoin="round" stroke-width="2.42"/>
          <path id="패스_267" data-name="패스 267" d="M1483.137,3531.244v5.615h10.606s2.981-.236,3.023-2.414a3.578,3.578,0,0,0-3.376-2.416h-4.741l1.3-2a2.03,2.03,0,0,0,0-2,1.842,1.842,0,0,0-2.405.17Z" fill="#fff" stroke="#4a65f6" stroke-linecap="round" stroke-linejoin="round" stroke-width="2.31"/>
        </g>
        <g id="그룹_138" data-name="그룹 138">
          <path id="패스_268" data-name="패스 268" d="M1503.369,3527.794h-8.376a.484.484,0,0,1-.407-.222c-.116-.181-2.847-4.528-1.9-12.478a.483.483,0,0,1,.48-.426h12a.483.483,0,0,1,.474.391c.062.321,1.482,7.915-1.879,12.536A.483.483,0,0,1,1503.369,3527.794Zm-8.1-.967h7.846c2.536-3.727,1.87-9.626,1.636-11.193H1493.6C1492.942,3521.984,1494.765,3525.886,1495.273,3526.827Z" fill="#4a65f6" stroke="#4a65f6" stroke-miterlimit="10" stroke-width="0.5"/>
          <path id="패스_269" data-name="패스 269" d="M1494.729,3520.914a11.631,11.631,0,0,0,1.436,4.849h6.012a9.12,9.12,0,0,0,1.453-4.849Z" fill="#4a65f6" stroke="#4a65f6" stroke-miterlimit="10" stroke-width="0.5"/>
          <path id="패스_270" data-name="패스 270" d="M1506.011,3524.852a4.52,4.52,0,0,1-1.173-.153.645.645,0,0,1,.335-1.245,3.211,3.211,0,0,0,.838.109c1.589,0,2.7-1.783,2.7-3.383a2.224,2.224,0,0,0-.775-1.749,2.157,2.157,0,0,0-1.8-.445,1.019,1.019,0,0,1-.235.014.645.645,0,0,1-.056-1.289c.032,0,.064,0,.1,0a3.46,3.46,0,0,1,2.823.729,3.533,3.533,0,0,1,1.24,2.739C1510,3522.436,1508.4,3524.852,1506.011,3524.852Z" fill="#4a65f6" stroke="#4a65f6" stroke-miterlimit="10" stroke-width="0.5"/>
          <path id="패스_271" data-name="패스 271" d="M1502.353,3513.052a.322.322,0,0,1-.155-.6c.505-.276.492-.628.492-.632a.369.369,0,0,1,0-.047.852.852,0,0,0-.409-.654.373.373,0,0,1-.052-.039,1.4,1.4,0,0,1-.435-1.27,1.243,1.243,0,0,1,.966-1.08.322.322,0,0,1,.153.626.616.616,0,0,0-.477.516.3.3,0,0,1-.009.059.745.745,0,0,0,.22.657,1.472,1.472,0,0,1,.688,1.2,1.385,1.385,0,0,1-.826,1.232A.327.327,0,0,1,1502.353,3513.052Z" fill="#4a65f6" stroke="#4a65f6" stroke-miterlimit="10" stroke-width="0.5"/>
          <path id="패스_272" data-name="패스 272" d="M1499.429,3513a.322.322,0,0,1-.155-.6c.5-.275.491-.625.491-.639s0-.03,0-.04a.848.848,0,0,0-.407-.653.306.306,0,0,1-.054-.04,1.391,1.391,0,0,1-.435-1.271,1.243,1.243,0,0,1,.965-1.08.323.323,0,0,1,.153.627.616.616,0,0,0-.476.515.542.542,0,0,1-.009.059.739.739,0,0,0,.219.657,1.469,1.469,0,0,1,.688,1.2,1.382,1.382,0,0,1-.825,1.232A.318.318,0,0,1,1499.429,3513Z" fill="#4a65f6" stroke="#4a65f6" stroke-miterlimit="10" stroke-width="0.5"/>
          <path id="패스_273" data-name="패스 273" d="M1496.312,3513.017a.322.322,0,0,1-.155-.6c.5-.276.492-.625.491-.641s0-.029,0-.039a.847.847,0,0,0-.407-.653.42.42,0,0,1-.054-.04,1.389,1.389,0,0,1-.435-1.27,1.242,1.242,0,0,1,.966-1.08.322.322,0,0,1,.153.625.618.618,0,0,0-.477.517.3.3,0,0,1-.009.059.742.742,0,0,0,.22.657,1.469,1.469,0,0,1,.687,1.2,1.384,1.384,0,0,1-.825,1.232A.319.319,0,0,1,1496.312,3513.017Z" fill="#4a65f6" stroke="#4a65f6" stroke-miterlimit="10" stroke-width="0.5"/>
          <path id="패스_274" data-name="패스 274" d="M1503.253,3530.377h-8.041a.483.483,0,0,1-.483-.483v-2.474a.483.483,0,0,1,.483-.483h8.041a.483.483,0,0,1,.483.483v2.474A.484.484,0,0,1,1503.253,3530.377Zm-7.558-.967h7.074V3527.9h-7.074Z" fill="#4a65f6" stroke="#4a65f6" stroke-miterlimit="10" stroke-width="0.5"/>
        </g>
      </g>
    </g>
    <g id="그룹_143" data-name="그룹 143">
      <path id="패스_275" data-name="패스 275" d="M1495.609,3460.092a6.848,6.848,0,1,1-1.5,13.527,6.809,6.809,0,0,1-2.991-1.511l-2.478.843a.692.692,0,0,1-.217.043c-.2,0-.242-.16-.079-.418l1.372-2.159a6.847,6.847,0,0,1,5.891-10.325" fill="#fff" stroke="#4a65f6" stroke-linecap="round" stroke-linejoin="round" stroke-width="2"/>
      <g id="그룹_140" data-name="그룹 140">
        <path id="패스_276" data-name="패스 276" d="M1493.154,3466.94a1.026,1.026,0,1,1-1.025-1.025A1.025,1.025,0,0,1,1493.154,3466.94Z" fill="#4a65f6"/>
      </g>
      <g id="그룹_141" data-name="그룹 141">
        <path id="패스_277" data-name="패스 277" d="M1496.647,3466.94a1.025,1.025,0,1,1-1.026-1.025A1.025,1.025,0,0,1,1496.647,3466.94Z" fill="#4a65f6"/>
      </g>
      <g id="그룹_142" data-name="그룹 142">
        <path id="패스_278" data-name="패스 278" d="M1500.14,3466.94a1.025,1.025,0,1,1-1.025-1.025A1.025,1.025,0,0,1,1500.14,3466.94Z" fill="#4a65f6"/>
      </g>
    </g>
    <g id="그룹_147" data-name="그룹 147">
      <path id="패스_279" data-name="패스 279" d="M1500.722,3483.075a6.846,6.846,0,0,1,5.891,10.324l1.372,2.16c.163.257.122.418-.079.418a.7.7,0,0,1-.217-.043l-2.478-.844a6.848,6.848,0,1,1-6-11.846,6.893,6.893,0,0,1,1.513-.169" fill="#fff" stroke="#4a65f6" stroke-linecap="round" stroke-linejoin="round" stroke-width="2"/>
      <g id="그룹_144" data-name="그룹 144">
        <path id="패스_280" data-name="패스 280" d="M1503.177,3489.923a1.026,1.026,0,1,0,1.025-1.025A1.024,1.024,0,0,0,1503.177,3489.923Z" fill="#4a65f6"/>
      </g>
      <g id="그룹_145" data-name="그룹 145">
        <path id="패스_281" data-name="패스 281" d="M1499.684,3489.923a1.025,1.025,0,1,0,1.026-1.025A1.024,1.024,0,0,0,1499.684,3489.923Z" fill="#4a65f6"/>
      </g>
      <g id="그룹_146" data-name="그룹 146">
        <path id="패스_282" data-name="패스 282" d="M1496.191,3489.923a1.025,1.025,0,1,0,1.025-1.025A1.024,1.024,0,0,0,1496.191,3489.923Z" fill="#4a65f6"/>
      </g>
    </g>
  </g>
</svg>
