<svg xmlns="http://www.w3.org/2000/svg" width="89.875" height="18.128" viewBox="0 0 89.875 18.128">
  <g id="quick_logo8" transform="translate(-1762.141 -883.148)">
    <g id="그룹_596" data-name="그룹 596">
      <g id="그룹_594" data-name="그룹 594">
        <path id="패스_944" data-name="패스 944" d="M1784.64,890.608a12.157,12.157,0,0,0-3.682-4.554.2.2,0,0,1-.1-.194v-2.486a.22.22,0,0,0-.226-.226h-2.228a.221.221,0,0,0-.226.226v.775a.206.206,0,0,1-.291.194,12.141,12.141,0,0,0-4.456-.84,12.416,12.416,0,0,0-11.206,7.17,1.338,1.338,0,0,0,.388,1.517,1.062,1.062,0,0,0,.613.194,1.009,1.009,0,0,0,.969-.646,10.209,10.209,0,0,1,18.5-.033,1.066,1.066,0,0,0,1.551.485,1.249,1.249,0,0,0,.387-1.582Z" fill="#ec81aa"/>
        <path id="패스_945" data-name="패스 945" d="M1776.73,898.481a1.433,1.433,0,0,1,1.1.41,1.412,1.412,0,0,1,.014,1.923,1.445,1.445,0,0,1-1.115.462h-11.671a3.282,3.282,0,0,1-2.268-.615,3.022,3.022,0,0,1-.65-2.232v-4.477c0-.233.009-.422.25-.422h2.24c.241,0,.245.258.245.491l.028,3.562c0,.6,1.153.9,1.773.9Z" fill="#ec81aa"/>
        <path id="패스_946" data-name="패스 946" d="M1786.01,897.051a4.183,4.183,0,0,1-1.053,3,4.189,4.189,0,0,1-5.687,0,4.812,4.812,0,0,1,0-6.011,4.189,4.189,0,0,1,5.687,0A4.2,4.2,0,0,1,1786.01,897.051Zm-2.077,0a2.843,2.843,0,0,0-.508-1.813,1.614,1.614,0,0,0-1.319-.633,1.6,1.6,0,0,0-1.3.633,2.837,2.837,0,0,0-.509,1.813,2.8,2.8,0,0,0,.509,1.8,1.6,1.6,0,0,0,1.3.634,1.612,1.612,0,0,0,1.319-.634A2.811,2.811,0,0,0,1783.933,897.051Z" fill="#ec81aa"/>
        <g id="그룹_593" data-name="그룹 593">
          <g id="그룹_592" data-name="그룹 592">
            <path id="패스_947" data-name="패스 947" d="M1771.495,891.135a.916.916,0,1,0,.916.916.924.924,0,0,0-.916-.916Z" fill="#ec81aa"/>
            <path id="패스_948" data-name="패스 948" d="M1775.415,891.135a.916.916,0,1,0,.915.916A.924.924,0,0,0,1775.415,891.135Z" fill="#ec81aa"/>
          </g>
          <path id="패스_949" data-name="패스 949" d="M1777.594,894.417a.567.567,0,0,0-.426-.927.59.59,0,0,0-.445.3,3.879,3.879,0,0,1-6.536,0,.59.59,0,0,0-.445-.3.568.568,0,0,0-.427.927,4.866,4.866,0,0,0,8.279,0Z" fill="#ec81aa"/>
        </g>
      </g>
      <g id="그룹_595" data-name="그룹 595">
        <path id="패스_950" data-name="패스 950" d="M1794.844,888.882v.1a5.846,5.846,0,0,1-.194,1.58,12.772,12.772,0,0,1,1.919.4,3.972,3.972,0,0,1,1.081.492,1.211,1.211,0,0,1,.476.589,2.311,2.311,0,0,1,.1.71,1.819,1.819,0,0,1-.145.725,1.87,1.87,0,0,1-1.008,1,1.917,1.917,0,0,1-.749.145,1.306,1.306,0,0,1-.637-.145,1.214,1.214,0,0,1-.468-.54,5.115,5.115,0,0,1-.371-1.1q-.17-.71-.331-1.838a4.092,4.092,0,0,1-.943,1.548,5,5,0,0,1-1.419,1.008,6.665,6.665,0,0,1-1.726.54,11.08,11.08,0,0,1-1.894.161.383.383,0,0,1-.347-.2.859.859,0,0,1,0-.879.38.38,0,0,1,.347-.21,4.454,4.454,0,0,0,1.354-.177,1.729,1.729,0,0,0,.879-.621,2.854,2.854,0,0,0,.468-1.2,11.114,11.114,0,0,0,.137-1.919v-.161h-2.467a.386.386,0,0,1-.347-.193.833.833,0,0,1-.121-.452.857.857,0,0,1,.121-.435.381.381,0,0,1,.347-.21h2.467v-.709a.93.93,0,0,1,.145-.516,1.242,1.242,0,0,1,.387-.379,1.947,1.947,0,0,1,.548-.234,2.454,2.454,0,0,1,.629-.081,2.6,2.6,0,0,1,.653.081,1.945,1.945,0,0,1,.557.234,1.338,1.338,0,0,1,.4.379.9.9,0,0,1,.153.516v.709h2.677a.382.382,0,0,1,.347.21.866.866,0,0,1,.12.435.841.841,0,0,1-.12.452.387.387,0,0,1-.347.193Zm-5.128,9.273a2.2,2.2,0,0,1,.371-1.218,3.094,3.094,0,0,1,1.161-1,7.217,7.217,0,0,1,2.016-.669,17.767,17.767,0,0,1,5.845,0,7.329,7.329,0,0,1,2.032.669,3.236,3.236,0,0,1,1.185,1,2.121,2.121,0,0,1,0,2.443,3.209,3.209,0,0,1-1.185.984,7.511,7.511,0,0,1-2.032.661,17.767,17.767,0,0,1-5.845,0,7.4,7.4,0,0,1-2.016-.661,3.067,3.067,0,0,1-1.161-.984A2.182,2.182,0,0,1,1789.716,898.155Zm3.435,0a1.556,1.556,0,0,0,.814,1.346,4.034,4.034,0,0,0,2.2.524,4.259,4.259,0,0,0,2.282-.524,1.506,1.506,0,0,0,0-2.693,4.259,4.259,0,0,0-2.282-.524,4.034,4.034,0,0,0-2.2.524A1.558,1.558,0,0,0,1793.151,898.155Zm9.369-4.483a.97.97,0,0,1-.145.532,1.251,1.251,0,0,1-.387.379,1.917,1.917,0,0,1-.557.233,2.557,2.557,0,0,1-.653.081,2.308,2.308,0,0,1-.62-.081,1.925,1.925,0,0,1-.541-.233,1.253,1.253,0,0,1-.387-.379.97.97,0,0,1-.145-.532v-2.855h-1.6a.386.386,0,0,1-.347-.193.833.833,0,0,1-.121-.452.857.857,0,0,1,.121-.435.381.381,0,0,1,.347-.21h1.6v-2.1a.968.968,0,0,1,.145-.532,1.242,1.242,0,0,1,.387-.379,1.779,1.779,0,0,1,.541-.226,2.623,2.623,0,0,1,.62-.073,2.909,2.909,0,0,1,.653.073,1.78,1.78,0,0,1,.557.226,1.24,1.24,0,0,1,.387.379.968.968,0,0,1,.145.532Z" fill="#ec81aa"/>
        <path id="패스_951" data-name="패스 951" d="M1807.282,894.623a3.866,3.866,0,0,1-2.6-.734,2.681,2.681,0,0,1-.83-2.12v-3.935a.934.934,0,0,1,.145-.516,1.252,1.252,0,0,1,.387-.379,1.947,1.947,0,0,1,.548-.234,2.492,2.492,0,0,1,.629-.081,2.585,2.585,0,0,1,.637.081,1.944,1.944,0,0,1,.557.234,1.25,1.25,0,0,1,.387.379.941.941,0,0,1,.145.516v5.5h5.241a.379.379,0,0,1,.346.21.855.855,0,0,1,.121.435.83.83,0,0,1-.121.451.383.383,0,0,1-.346.194Zm1.112,5.354h8.966a.379.379,0,0,1,.347.209.858.858,0,0,1,.121.436.83.83,0,0,1-.121.451.386.386,0,0,1-.347.194h-8.966a4.019,4.019,0,0,1-2.709-.758,2.8,2.8,0,0,1-.854-2.209v-1.452a1.023,1.023,0,0,1,.153-.564,1.228,1.228,0,0,1,.4-.4,2.065,2.065,0,0,1,.564-.234,2.614,2.614,0,0,1,.654-.081,2.712,2.712,0,0,1,.661.081,2.043,2.043,0,0,1,.572.234,1.227,1.227,0,0,1,.4.4,1.031,1.031,0,0,1,.153.564Zm9.047-4.048a.958.958,0,0,1-.145.532,1.243,1.243,0,0,1-.387.379,1.886,1.886,0,0,1-.556.234,2.613,2.613,0,0,1-.653.081,2.355,2.355,0,0,1-.621-.081,1.911,1.911,0,0,1-.541-.234,1.241,1.241,0,0,1-.387-.379.966.966,0,0,1-.145-.532v-3.6h-2.967a.385.385,0,0,1-.347-.193.784.784,0,0,1-.121-.42.867.867,0,0,1,.121-.435.38.38,0,0,1,.347-.21h2.967V889.8h-2.967a.385.385,0,0,1-.347-.193.782.782,0,0,1-.121-.419.868.868,0,0,1,.121-.436.38.38,0,0,1,.347-.21h2.967v-.87a.968.968,0,0,1,.145-.532,1.24,1.24,0,0,1,.387-.379,1.787,1.787,0,0,1,.541-.226,2.581,2.581,0,0,1,.621-.073,2.867,2.867,0,0,1,.653.073,1.773,1.773,0,0,1,.556.226,1.242,1.242,0,0,1,.387.379.96.96,0,0,1,.145.532Z" fill="#ec81aa"/>
        <path id="패스_952" data-name="패스 952" d="M1819.326,890.463a2.628,2.628,0,0,1,.141-1.407,2.832,2.832,0,0,1,1.025-1.407,5.224,5.224,0,0,1,1.748-.563,33.934,33.934,0,0,1,3.919-.543,1.725,1.725,0,0,1-.341-1.346,1.278,1.278,0,0,1,.844-.944,1.668,1.668,0,0,1,1.427.08,1.705,1.705,0,0,1,.8,2.07q1.527-.041,2.492-.04a5.7,5.7,0,0,1,2.451.522,2.688,2.688,0,0,1,.925,4.14,1.617,1.617,0,0,1-1.728.442,1.151,1.151,0,0,1-.885-1.406q.1-.864.1-.945a.645.645,0,0,0-.382-.482,11.752,11.752,0,0,0-3.718-.443,22.754,22.754,0,0,0-4.884.242,2.29,2.29,0,0,0-1.025.361,1.036,1.036,0,0,0-.08.8,5.436,5.436,0,0,0,.161.543,2.49,2.49,0,0,1,.08.784q0,.783-.924,1.025a1.629,1.629,0,0,1-1.467-.241A1.808,1.808,0,0,1,1819.326,890.463Zm15.937,9.3a1.228,1.228,0,0,1-.583.985q-1.286.824-4.361.1a17.082,17.082,0,0,1-2.552-.824,12.2,12.2,0,0,1-2.512.864,9.906,9.906,0,0,1-4.582.181,1.523,1.523,0,0,1-.965-.623,1.062,1.062,0,0,1-.181-.8q.122-.562,1.085-.764.463-.079,2.191-.141a14.514,14.514,0,0,0,2.512-.241,5.749,5.749,0,0,1-1.809-3.637l-1.467.02q-2.472,0-2.612-1.266-.1-.924,1.045-1.086a17.367,17.367,0,0,1,1.829.02q.783,0,1.2.021a15.012,15.012,0,0,1,.282-1.829,1.85,1.85,0,0,1,.583-1.045,1.421,1.421,0,0,1,1.467-.281q.864.24.562,2.471l-.04.342a2.021,2.021,0,0,0-.04.321q5.226-.06,7.6-.321,1.266-.141,1.447.543t-.744.984q-.562.141-2.009.382a8.3,8.3,0,0,1-2.513,4.261,14.321,14.321,0,0,0,2.412.3q2.23.081,2.251.1A.993.993,0,0,1,1835.263,899.767Zm-9.063-5a3.363,3.363,0,0,0,1.607,2.774,4.661,4.661,0,0,0,2.07-3.075Q1828.25,894.642,1826.2,894.763Z" fill="#ec81aa"/>
        <path id="패스_953" data-name="패스 953" d="M1840.1,893.768a3.8,3.8,0,0,1-2.556-.717,2.614,2.614,0,0,1-.814-2.072v-3.387a.933.933,0,0,1,.145-.516,1.268,1.268,0,0,1,.379-.379,1.835,1.835,0,0,1,.532-.234,2.4,2.4,0,0,1,.621-.08,2.424,2.424,0,0,1,.612.08,1.966,1.966,0,0,1,.549.234,1.25,1.25,0,0,1,.387.379.941.941,0,0,1,.145.516v1.371h2.177v-1.371a.933.933,0,0,1,.145-.516,1.279,1.279,0,0,1,.379-.379,1.848,1.848,0,0,1,.532-.234,2.336,2.336,0,0,1,.6-.08,2.5,2.5,0,0,1,.629.08,1.838,1.838,0,0,1,.54.234,1.28,1.28,0,0,1,.379.379.933.933,0,0,1,.145.516v4.983a.929.929,0,0,1-.145.516,1.189,1.189,0,0,1-.379.371,1.97,1.97,0,0,1-.54.226,2.455,2.455,0,0,1-.629.08Zm-2.58,4.225a2.393,2.393,0,0,1,.371-1.29,3.146,3.146,0,0,1,1.145-1.04,6.927,6.927,0,0,1,1.983-.7,16.321,16.321,0,0,1,5.781,0,7.17,7.17,0,0,1,2.008.7,3.21,3.21,0,0,1,1.169,1.04,2.385,2.385,0,0,1,0,2.58,3.2,3.2,0,0,1-1.169,1.041,7.025,7.025,0,0,1-2.008.693,16.835,16.835,0,0,1-5.781,0,6.789,6.789,0,0,1-1.983-.693,3.139,3.139,0,0,1-1.145-1.041A2.389,2.389,0,0,1,1837.519,897.993Zm2.58-5.515h2.177v-2.225H1840.1Zm.854,5.515a1.611,1.611,0,0,0,.21.807,2.111,2.111,0,0,0,.589.653,2.79,2.79,0,0,0,.919.435,4.467,4.467,0,0,0,1.217.153,4.8,4.8,0,0,0,1.258-.153,2.989,2.989,0,0,0,.96-.435,2.032,2.032,0,0,0,.6-.653,1.653,1.653,0,0,0,0-1.613,2.032,2.032,0,0,0-.6-.653,2.989,2.989,0,0,0-.96-.435,4.8,4.8,0,0,0-1.258-.154,4.465,4.465,0,0,0-1.217.154,2.79,2.79,0,0,0-.919.435,2.111,2.111,0,0,0-.589.653A1.608,1.608,0,0,0,1840.953,897.993Zm9.208-8.385h1.387a.381.381,0,0,1,.347.21.855.855,0,0,1,.121.435.83.83,0,0,1-.121.451.385.385,0,0,1-.347.194h-1.387v2.451a.956.956,0,0,1-.145.532,1.229,1.229,0,0,1-.387.379,1.9,1.9,0,0,1-.556.234,2.61,2.61,0,0,1-.653.081,2.363,2.363,0,0,1-.621-.081,1.934,1.934,0,0,1-.54-.234,1.221,1.221,0,0,1-.387-.379.957.957,0,0,1-.145-.532v-5.918a.96.96,0,0,1,.145-.532,1.22,1.22,0,0,1,.387-.379,1.782,1.782,0,0,1,.54-.226,2.639,2.639,0,0,1,.621-.073,2.915,2.915,0,0,1,.653.073,1.765,1.765,0,0,1,.556.226,1.229,1.229,0,0,1,.387.379.959.959,0,0,1,.145.532Z" fill="#ec81aa"/>
      </g>
    </g>
  </g>
</svg>
