<svg xmlns="http://www.w3.org/2000/svg" width="39.717" height="27.802" viewBox="0 0 39.717 27.802">
  <g id="quick_logo6" transform="translate(-1787.22 -748.129)">
    <g id="그룹_567" data-name="그룹 567">
      <g id="그룹_566" data-name="그룹 566">
        <path id="패스_890" data-name="패스 890" d="M1826.107,752.47a4.974,4.974,0,0,0-3.511-3.511c-3.1-.83-15.518-.83-15.518-.83s-12.419,0-15.517.83a4.97,4.97,0,0,0-3.511,3.511c-.83,3.1-.83,9.56-.83,9.56s0,6.462.83,9.56a4.973,4.973,0,0,0,3.511,3.511c3.1.83,15.517.83,15.517.83s12.42,0,15.518-.83a4.977,4.977,0,0,0,3.511-3.511c.83-3.1.83-9.56.83-9.56s0-6.463-.83-9.56" fill="#f44d55"/>
      </g>
    </g>
    <path id="패스_891" data-name="패스 891" d="M1803.107,767.987l10.319-5.958-10.319-5.958Z" fill="#fff"/>
  </g>
</svg>
