<?xml version="1.0" encoding="utf-8"?>
<!-- Generator: Adobe Illustrator 19.0.0, SVG Export Plug-In . SVG Version: 6.00 Build 0)  -->
<svg version="1.1" id="레이어_1" width="85.8" height="25.1" xmlns="http://www.w3.org/2000/svg" xmlns:xlink="http://www.w3.org/1999/xlink" x="0px"
	 y="0px" viewBox="0 0 85.8 25.1" style="enable-background:new 0 0 85.8 25.1;" xml:space="preserve">
<style type="text/css">
	.st0{fill:#0047BA;}
</style>
<g>
	<path class="st0" d="M6.7,9.1c0,0.7-0.6,1.3-1.3,1.3S4.1,9.8,4.1,9.1V5.6h1.7v-2H0v5.5c0,2.3,1.9,4.3,4.3,4.3
		c2.3,0,4.3-1.9,4.3-4.3V5.6h1.9v7.5h3.7V3.6l-7.4,0V9.1z"/>
	<polygon class="st0" points="15.2,13.2 21.4,13.2 21.4,16.4 25.1,16.4 25.1,11.1 15.2,11.1 	"/>
	<path class="st0" d="M18.8,3.5c0.8,0,1.5,0.7,1.5,1.5V10h4.8V5c0-2.7-2.2-5-5-5c-2.7,0-5,2.2-5,5h2.1C17.3,4.1,18,3.5,18.8,3.5z"/>
	<path class="st0" d="M36.9,5.6h2.8v5.1c-0.5-0.1-0.9-0.2-1.4-0.2c-2.8,0-5.1,2.3-5.1,5.1s2.3,5.1,5.1,5.1c2.8,0,5.1-2.3,5.1-5.1
		c0,0,0,0,0,0V3.6l-6.5,0V5.6z M40.5,15.7c0,1.2-1,2.2-2.2,2.2c-1.2,0-2.2-1-2.2-2.2s1-2.2,2.2-2.2C39.5,13.5,40.5,14.5,40.5,15.7z"
		/>
	<rect x="30.1" y="0.5" class="st0" width="6" height="2"/>
	<path class="st0" d="M35.3,8.2c0.5,0.3,0.9,0.9,0.9,1.6h2.9c0-1.8-1.4-3.3-3.2-3.5c0-0.2,0-0.4,0-0.7v-2h-6v2h1.1
		c0,0.8-0.7,1.5-1.5,1.5c-0.8,0-1.5-0.7-1.5-1.5h-2.1c0,2.7,2.2,5,5,5C32.9,10.6,34.4,9.6,35.3,8.2z"/>
	<path class="st0" d="M48.9,13.8c0.4,2,2.1,3.5,4.2,3.5c2.3,0,4.3-1.9,4.3-4.3V3.6h-7.6v2h3.9v1h-3.9v2h3.9v4.5
		c0,0.7-0.6,1.3-1.3,1.3c-0.7,0-1.3-0.6-1.3-1.3c1.1-0.8,1.9-2.1,1.9-3.5h-1.8c0,0.7-0.6,1.3-1.3,1.3c-0.7,0-1.3-0.6-1.3-1.3v-6
		h-4.1v6c0,2.3,1.9,4.3,4.3,4.3C48.8,13.8,48.9,13.8,48.9,13.8z"/>
	<path class="st0" d="M81.1,13.1c0,0.7-0.6,1.3-1.3,1.3c-0.7,0-1.3-0.6-1.3-1.2c1.1-0.8,1.9-2.1,1.9-3.5v-6h-6v2h1.8v4
		c0,0.7-0.6,1.3-1.3,1.3c-0.7,0-1.3-0.6-1.3-1.3H58.7v2h5.3v3h3.7v-3h4.6c0.7,1.3,2.1,2.2,3.7,2.2c0.1,0,0.1,0,0.2,0
		c0.4,2,2.1,3.5,4.2,3.5c2.3,0,4.3-1.9,4.3-4.3v-1.2h-3.7V13.1z"/>
	<polygon class="st0" points="81.1,3.6 81.1,10.9 84.8,10.9 84.8,5.6 85.8,5.6 85.8,3.6 	"/>
	<path class="st0" d="M63.7,18c0,0.7-0.6,1.3-1.3,1.3c-0.7,0-1.3-0.5-1.3-1.2h-3.7v1.3c0,0.7-0.6,1.3-1.3,1.3
		c-0.7,0-1.3-0.6-1.3-1.3h-3.7l0,1.4c0,0.7-0.6,1.3-1.3,1.3c-0.7,0-1.3-0.6-1.3-1.3h-2.2c0,2.3,1.9,4.3,4.3,4.3c1.6,0,3-0.9,3.8-2.2
		c0.7,0.5,1.6,0.8,2.5,0.8c1.6,0,3-0.9,3.7-2.2c0.7,0.5,1.6,0.8,2.5,0.8c2.3,0,4.3-1.9,4.3-4.3v-1.4h-3.7V18z"/>
	<path class="st0" d="M63.3,8.8c0.9,0,1.8-0.3,2.6-0.7c0.7,0.5,1.6,0.7,2.6,0.7c2.7,0,5-2.2,5-5V3.6h-2.1v0.3c0,0.8-0.7,1.5-1.5,1.5
		c-0.8,0-1.5-0.7-1.5-1.5V2.5h2v-2h-8.8v2h2v1.3c0,0.8-0.7,1.5-1.5,1.5c-0.8,0-1.5-0.7-1.5-1.5V3.6h-2.1v0.3
		C58.4,6.6,60.6,8.8,63.3,8.8z"/>
</g>
</svg>
