<svg xmlns="http://www.w3.org/2000/svg" width="37.826" height="29.689" viewBox="0 0 37.826 29.689">
  <g id="quick_logo1" transform="translate(-1788.166 -421.131)">
    <g id="그룹_516" data-name="그룹 516">
      <path id="패스_847" data-name="패스 847" d="M1788.166,444.354l12.106-19.069,1.7,2.928-9.692,15.152A36.939,36.939,0,0,0,1788.166,444.354Z" fill="#64bfaa"/>
    </g>
    <g id="그룹_517" data-name="그룹 517">
      <path id="패스_848" data-name="패스 848" d="M1806.563,422.872l-12.9,20.256s2.216-.2,2.611-.158l11.474-17.843Z" fill="#64bfaa"/>
    </g>
    <g id="그룹_518" data-name="그룹 518">
      <path id="패스_849" data-name="패스 849" d="M1811.429,421.131l-13.57,21.562s10.722-.475,16.22.475c0,0,11.2,1.582,8.23,5.024,0,0-1.266,1.384-5.7,2.373,0,0,8.071-.395,9.218-4.232a2.612,2.612,0,0,0-.2-2.216Z" fill="#64bfaa"/>
    </g>
    <g id="그룹_519" data-name="그룹 519">
      <path id="패스_850" data-name="패스 850" d="M1791.732,446.454h.974c.433,0,1.116.122,1.116,1.631,0,.84-.277,1.717-1.1,1.717h-.987Zm-.995,4.231h2.1c1.6,0,2.016-1.581,2.016-2.678,0-.969-.339-2.436-1.976-2.436h-2.145Z" fill="#64bfaa"/>
    </g>
    <g id="그룹_520" data-name="그룹 520">
      <path id="패스_851" data-name="패스 851" d="M1797.274,446.725h.013l.6,2.022h-1.237Zm-.893,2.9h1.793l.311,1.055h1.1l-1.711-5.114h-1.17l-1.732,5.114h1.069Z" fill="#64bfaa"/>
    </g>
    <g id="그룹_521" data-name="그룹 521">
      <path id="패스_852" data-name="패스 852" d="M1803.809,446.476h-2.577v1.075h2.368v.9h-2.368v1.324h2.693v.9h-3.687v-5.113h3.572Z" fill="#64bfaa"/>
    </g>
    <g id="그룹_522" data-name="그룹 522">
      <path id="패스_853" data-name="패스 853" d="M1807.029,447.929h2.029v2.756h-.676l-.1-.642a1.762,1.762,0,0,1-1.516.777c-1.17,0-2.232-.884-2.232-2.678,0-1.4.737-2.713,2.374-2.706a1.957,1.957,0,0,1,2.132,1.723h-1.015a1.082,1.082,0,0,0-1.062-.84c-.724,0-1.394.527-1.394,1.837,0,1.4.724,1.76,1.414,1.76a1.218,1.218,0,0,0,1.177-1.126h-1.13Z" fill="#64bfaa"/>
    </g>
    <g id="그룹_523" data-name="그룹 523">
      <path id="패스_854" data-name="패스 854" d="M1813.9,448.9a1.749,1.749,0,0,1-2,1.923,2.019,2.019,0,0,1-1.543-.62,1.93,1.93,0,0,1-.378-1.239v-3.39h1.035v3.319c0,.712.392,1.026.866,1.026a.86.86,0,0,0,.981-.977v-3.368h1.035Z" fill="#64bfaa"/>
    </g>
  </g>
</svg>
