<svg xmlns="http://www.w3.org/2000/svg" width="89.875" height="17.401" viewBox="0 0 89.875 17.401">
  <g id="quick_logo7" transform="translate(-1762.141 -820.457)">
    <path id="패스_882" data-name="패스 882" d="M1769.172,823.184c-1.058,0-1.364.471-1.364,1.505v1.717h2.822l-.282,2.776h-2.54V837.6h-3.387v-8.419h-2.28v-2.776h2.28v-1.67c0-2.8,1.13-4.279,4.281-4.279a16.057,16.057,0,0,1,1.975.117v2.61" fill="#4996ea"/>
    <path id="패스_883" data-name="패스 883" d="M1770.865,831.651c0-3.128,1.482-5.48,4.586-5.48a3.327,3.327,0,0,1,3.222,1.951v-1.716h3.246V837.6h-3.246v-1.691a3.288,3.288,0,0,1-3.222,1.927c-3.1,0-4.586-2.351-4.586-5.479m3.387.047c0,1.67.612,2.774,2.187,2.774,1.388,0,2.093-1.011,2.093-2.609v-1.129c0-1.6-.7-2.611-2.093-2.611-1.575,0-2.187,1.106-2.187,2.776Z" fill="#4996ea"/>
    <path id="패스_884" data-name="패스 884" d="M1788.972,826.171a6.184,6.184,0,0,1,3.245.752l-.752,2.4a5.328,5.328,0,0,0-2.258-.517c-1.834,0-2.634,1.057-2.634,2.869v.657c0,1.812.8,2.87,2.634,2.87a5.343,5.343,0,0,0,2.258-.517l.752,2.4a6.173,6.173,0,0,1-3.245.753c-3.974,0-5.785-2.141-5.785-5.574v-.517c0-3.433,1.811-5.573,5.785-5.573" fill="#4996ea"/>
    <path id="패스_885" data-name="패스 885" d="M1792.664,832.426v-.987c0-3.175,1.81-5.268,5.5-5.268,3.48,0,5.008,2.117,5.008,5.221v1.787h-7.125c.071,1.529.753,2.21,2.634,2.21a9.627,9.627,0,0,0,3.6-.681l.61,2.328a10.922,10.922,0,0,1-4.35.822c-4.279,0-5.879-2.139-5.879-5.432m3.386-1.458h4.092v-.282c0-1.223-.493-2.187-1.975-2.187-1.529,0-2.117.964-2.117,2.469" fill="#4996ea"/>
    <path id="패스_886" data-name="패스 886" d="M1815.733,832.355c0,3.128-1.5,5.48-4.609,5.48a3.465,3.465,0,0,1-3.339-1.929V837.6h-3.2V820.784l3.386-.3v7.478a3.378,3.378,0,0,1,3.151-1.786c3.1,0,4.609,2.35,4.609,5.478m-3.386-.07c0-1.576-.612-2.751-2.234-2.751-1.388,0-2.14.988-2.14,2.586v1.176c0,1.6.752,2.587,2.14,2.587,1.622,0,2.234-1.176,2.234-2.752Z" fill="#4996ea"/>
    <path id="패스_887" data-name="패스 887" d="M1816.861,832.285v-.564c0-3.222,1.834-5.55,5.574-5.55s5.573,2.328,5.573,5.55v.564c0,3.222-1.835,5.55-5.573,5.55s-5.574-2.328-5.574-5.55m7.761-.8c0-1.481-.612-2.657-2.187-2.657s-2.187,1.176-2.187,2.657v1.035c0,1.481.61,2.657,2.187,2.657s2.187-1.176,2.187-2.657Z" fill="#4996ea"/>
    <path id="패스_888" data-name="패스 888" d="M1829.136,832.285v-.564c0-3.222,1.834-5.55,5.574-5.55s5.573,2.328,5.573,5.55v.564c0,3.222-1.835,5.55-5.573,5.55s-5.574-2.328-5.574-5.55m7.761-.8c0-1.481-.612-2.657-2.187-2.657s-2.187,1.176-2.187,2.657v1.035c0,1.481.61,2.657,2.187,2.657s2.187-1.176,2.187-2.657Z" fill="#4996ea"/>
    <path id="패스_889" data-name="패스 889" d="M1844.938,831.744l3.339-5.338h3.6l-3.5,5.527,3.645,5.667h-3.6l-3.481-5.478V837.6h-3.386V820.786l3.386-.307" fill="#4996ea"/>
  </g>
</svg>
